<svg xmlns="http://www.w3.org/2000/svg" viewBox="0 0 64 64" role="img" aria-labelledby="title">
  <title id="title">Agentic Mouse</title>
  <rect width="64" height="64" rx="15" fill="#f5f5f7"/>
  <!-- Explicit stroke opacity keeps the curves visible in ImageMagick exports. -->
  <path d="M12 28C12 17 20 8 31 8C44 8 52 18 52 31" fill="none" stroke="#24212c" stroke-opacity="1" stroke-width="3" stroke-linecap="round"/>
  <path d="M52 38C52 49 44 56 32 56C20 56 12 48 12 37" fill="none" stroke="#7152e8" stroke-opacity="1" stroke-width="3" stroke-linecap="round"/>
  <rect x="29.5" y="13" width="5" height="8" rx="2.5" fill="#24212c"/>
  <g fill="#24212c">
    <rect x="20" y="24" width="6" height="5" rx="1.5"/><rect x="29" y="24" width="6" height="5" rx="1.5"/>
    <rect x="20" y="31" width="6" height="5" rx="1.5"/><rect x="29" y="31" width="6" height="5" rx="1.5"/>
    <rect x="20" y="38" width="6" height="5" rx="1.5"/><rect x="29" y="38" width="6" height="5" rx="1.5"/>
    <rect x="20" y="45" width="6" height="5" rx="1.5"/><rect x="29" y="45" width="6" height="5" rx="1.5"/>
  </g>
  <g fill="#7152e8">
    <rect x="38" y="24" width="6" height="5" rx="1.5"/><rect x="38" y="31" width="6" height="5" rx="1.5"/>
    <rect x="38" y="38" width="6" height="5" rx="1.5"/><rect x="38" y="45" width="6" height="5" rx="1.5"/>
  </g>
</svg>
